<?xml version="1.0" encoding="UTF-8"?>
<svg id="Layer_1" data-name="Layer 1" xmlns="http://www.w3.org/2000/svg" viewBox="0 0 22.23 24.25">
  <defs>
    <style>
      .cls-1 {
        fill: #2196f3;
      }

      .cls-1, .cls-2, .cls-3 {
        stroke: #000;
        stroke-miterlimit: 10;
        stroke-width: .25px;
      }

      .cls-2 {
        fill: #b3b3b3;
      }

      .cls-3 {
        fill: #455a64;
      }
    </style>
  </defs>
  <path class="cls-2" d="M16.77.12c.4.29.41.45.19.9-.13.27-.2.58-.29.87-.02.07-.03.14-.04.23h-.3c-4.49,0-8.99,0-13.48,0-.49,0-.71.16-.72.5,0,.34.23.51.71.51,4.49,0,8.99,0,13.48,0,.23,0,.33.03.38.3.06.32.2.63.35.92.17.33.03.71-.34.77-.09.01-.18.02-.27.02-4.54,0-9.09,0-13.63,0-1.21,0-2.13-.59-2.52-1.61C-.25,2.08.62.49,2.13.17c.05-.01.1-.03.16-.05,4.83,0,9.66,0,14.49,0Z"/>
  <path class="cls-3" d="M.14,12.96c0-2.24.01-4.49-.01-6.73,0-.58.45-.8.89-.53.52.32,1.11.43,1.73.43,4.56,0,9.12,0,13.68,0,.55,0,.7.15.7.69,0,2.33,0,4.67,0,7,0,.57-.27.76-.81.59-2.91-.95-6.05.68-6.94,3.62-.08.25-.21.42-.44.55-1.13.65-1.72,1.64-1.8,2.94-.03.46-.18.61-.65.61-1.25,0-2.5,0-3.76,0-1.5,0-2.58-1.08-2.58-2.58,0-2.19,0-4.39,0-6.58Z"/>
  <path class="cls-1" d="M14.63,24.12c-1.34,0-2.68,0-4.02,0-1.04,0-1.96-.66-2.32-1.61-.37-.98-.12-2.07.69-2.75.27-.23.62-.39.95-.52.17-.07.23-.15.26-.32.18-1.14.72-2.08,1.62-2.8,1.99-1.6,4.87-1.23,6.4.82.11.15.22.19.4.19,1.76-.04,3.35,1.39,3.49,3.12.15,1.91-1.13,3.58-2.95,3.82-.3.04-.62.04-.92.04-1.19,0-2.39,0-3.58,0Z"/>
</svg>